<mxfile host="app.diagrams.net" agent="Mozilla/5.0 (Windows NT 10.0; Win64; x64) AppleWebKit/537.36 (KHTML, like Gecko) Chrome/139.0.0.0 Safari/537.36" version="28.1.1" pages="2">
  <diagram name="PÃ¡gina-1" id="GuE6-7UxbCQpU3fI9Hgw">
    <mxGraphModel grid="1" page="1" gridSize="10" guides="1" tooltips="1" connect="1" arrows="1" fold="1" pageScale="1" pageWidth="827" pageHeight="1169" math="0" shadow="0">
      <root>
        <mxCell id="0" />
        <mxCell id="1" parent="0" />
        <mxCell id="JMt6g2PzTP9PemR2RMLR-1" value="" style="rounded=0;whiteSpace=wrap;html=1;" vertex="1" parent="1">
          <mxGeometry x="80" y="40" width="720" height="440" as="geometry" />
        </mxCell>
        <mxCell id="JMt6g2PzTP9PemR2RMLR-2" value="&lt;font style=&quot;vertical-align: inherit;&quot; dir=&quot;auto&quot;&gt;&lt;font style=&quot;vertical-align: inherit;&quot; dir=&quot;auto&quot;&gt;colaborador&lt;/font&gt;&lt;/font&gt;" style="shape=umlActor;verticalLabelPosition=bottom;verticalAlign=top;html=1;outlineConnect=0;" vertex="1" parent="1">
          <mxGeometry x="-30" y="70" width="30" height="60" as="geometry" />
        </mxCell>
        <mxCell id="JMt6g2PzTP9PemR2RMLR-3" value="&lt;font style=&quot;vertical-align: inherit;&quot; dir=&quot;auto&quot;&gt;&lt;font style=&quot;vertical-align: inherit;&quot; dir=&quot;auto&quot;&gt;administrador&lt;/font&gt;&lt;/font&gt;" style="shape=umlActor;verticalLabelPosition=bottom;verticalAlign=top;html=1;outlineConnect=0;" vertex="1" parent="1">
          <mxGeometry x="880" y="250" width="30" height="60" as="geometry" />
        </mxCell>
        <mxCell id="JMt6g2PzTP9PemR2RMLR-4" value="&lt;font style=&quot;vertical-align: inherit;&quot; dir=&quot;auto&quot;&gt;&lt;font style=&quot;vertical-align: inherit;&quot; dir=&quot;auto&quot;&gt;cliente&lt;/font&gt;&lt;/font&gt;" style="shape=umlActor;verticalLabelPosition=bottom;verticalAlign=top;html=1;outlineConnect=0;" vertex="1" parent="1">
          <mxGeometry x="-30" y="320" width="30" height="60" as="geometry" />
        </mxCell>
        <mxCell id="JMt6g2PzTP9PemR2RMLR-5" value="&lt;font style=&quot;vertical-align: inherit;&quot; dir=&quot;auto&quot;&gt;&lt;font style=&quot;vertical-align: inherit;&quot; dir=&quot;auto&quot;&gt;&lt;font style=&quot;vertical-align: inherit;&quot; dir=&quot;auto&quot;&gt;&lt;font style=&quot;vertical-align: inherit;&quot; dir=&quot;auto&quot;&gt;plazos&lt;/font&gt;&lt;/font&gt;&lt;/font&gt;&lt;/font&gt;" style="ellipse;whiteSpace=wrap;html=1;" vertex="1" parent="1">
          <mxGeometry x="600" y="70" width="50" height="30" as="geometry" />
        </mxCell>
        <mxCell id="JMt6g2PzTP9PemR2RMLR-6" value="&lt;font style=&quot;vertical-align: inherit;&quot; dir=&quot;auto&quot;&gt;&lt;font style=&quot;vertical-align: inherit;&quot; dir=&quot;auto&quot;&gt;crear proyecto&lt;/font&gt;&lt;/font&gt;" style="ellipse;whiteSpace=wrap;html=1;" vertex="1" parent="1">
          <mxGeometry x="590" y="140" width="60" height="40" as="geometry" />
        </mxCell>
        <mxCell id="JMt6g2PzTP9PemR2RMLR-7" value="&lt;font style=&quot;vertical-align: inherit;&quot; dir=&quot;auto&quot;&gt;&lt;font style=&quot;vertical-align: inherit;&quot; dir=&quot;auto&quot;&gt;tareas&lt;/font&gt;&lt;/font&gt;" style="ellipse;whiteSpace=wrap;html=1;" vertex="1" parent="1">
          <mxGeometry x="600" y="210" width="50" height="30" as="geometry" />
        </mxCell>
        <mxCell id="JMt6g2PzTP9PemR2RMLR-8" value="&lt;font style=&quot;vertical-align: inherit;&quot; dir=&quot;auto&quot;&gt;&lt;font style=&quot;vertical-align: inherit;&quot; dir=&quot;auto&quot;&gt;avances&lt;/font&gt;&lt;/font&gt;" style="ellipse;whiteSpace=wrap;html=1;" vertex="1" parent="1">
          <mxGeometry x="600" y="290" width="50" height="30" as="geometry" />
        </mxCell>
        <mxCell id="JMt6g2PzTP9PemR2RMLR-9" value="&lt;font style=&quot;vertical-align: inherit;&quot; dir=&quot;auto&quot;&gt;&lt;font style=&quot;vertical-align: inherit;&quot; dir=&quot;auto&quot;&gt;informes&lt;/font&gt;&lt;/font&gt;" style="ellipse;whiteSpace=wrap;html=1;" vertex="1" parent="1">
          <mxGeometry x="600" y="370" width="50" height="30" as="geometry" />
        </mxCell>
        <mxCell id="JMt6g2PzTP9PemR2RMLR-10" value="&lt;font style=&quot;vertical-align: inherit;&quot; dir=&quot;auto&quot;&gt;&lt;font style=&quot;vertical-align: inherit;&quot; dir=&quot;auto&quot;&gt;informes genereados&lt;/font&gt;&lt;/font&gt;" style="ellipse;whiteSpace=wrap;html=1;" vertex="1" parent="1">
          <mxGeometry x="170" y="335" width="70" height="45" as="geometry" />
        </mxCell>
        <mxCell id="JMt6g2PzTP9PemR2RMLR-11" value="&lt;font style=&quot;vertical-align: inherit;&quot; dir=&quot;auto&quot;&gt;&lt;font style=&quot;vertical-align: inherit;&quot; dir=&quot;auto&quot;&gt;asignar tareas&lt;/font&gt;&lt;/font&gt;" style="ellipse;whiteSpace=wrap;html=1;" vertex="1" parent="1">
          <mxGeometry x="160" y="70" width="50" height="30" as="geometry" />
        </mxCell>
        <mxCell id="JMt6g2PzTP9PemR2RMLR-12" value="&lt;font style=&quot;vertical-align: inherit;&quot; dir=&quot;auto&quot;&gt;&lt;font style=&quot;vertical-align: inherit;&quot; dir=&quot;auto&quot;&gt;avances&lt;/font&gt;&lt;/font&gt;" style="ellipse;whiteSpace=wrap;html=1;" vertex="1" parent="1">
          <mxGeometry x="170" y="140" width="70" height="40" as="geometry" />
        </mxCell>
        <mxCell id="JMt6g2PzTP9PemR2RMLR-13" value="" style="endArrow=none;html=1;rounded=0;exitX=0;exitY=0.5;exitDx=0;exitDy=0;" edge="1" parent="1" source="JMt6g2PzTP9PemR2RMLR-11" target="JMt6g2PzTP9PemR2RMLR-2">
          <mxGeometry width="50" height="50" relative="1" as="geometry">
            <mxPoint x="440" y="270" as="sourcePoint" />
            <mxPoint x="490" y="220" as="targetPoint" />
          </mxGeometry>
        </mxCell>
        <mxCell id="JMt6g2PzTP9PemR2RMLR-15" value="" style="endArrow=none;html=1;rounded=0;exitX=0;exitY=0.5;exitDx=0;exitDy=0;" edge="1" parent="1" source="JMt6g2PzTP9PemR2RMLR-12" target="JMt6g2PzTP9PemR2RMLR-2">
          <mxGeometry width="50" height="50" relative="1" as="geometry">
            <mxPoint x="170" y="152" as="sourcePoint" />
            <mxPoint y="120" as="targetPoint" />
          </mxGeometry>
        </mxCell>
        <mxCell id="JMt6g2PzTP9PemR2RMLR-16" value="" style="endArrow=none;html=1;rounded=0;exitX=0;exitY=0.5;exitDx=0;exitDy=0;" edge="1" parent="1" source="JMt6g2PzTP9PemR2RMLR-10" target="JMt6g2PzTP9PemR2RMLR-4">
          <mxGeometry width="50" height="50" relative="1" as="geometry">
            <mxPoint x="570" y="342" as="sourcePoint" />
            <mxPoint x="400" y="310" as="targetPoint" />
          </mxGeometry>
        </mxCell>
        <mxCell id="JMt6g2PzTP9PemR2RMLR-17" value="" style="endArrow=none;html=1;rounded=0;exitX=0;exitY=0.5;exitDx=0;exitDy=0;entryX=1;entryY=0.5;entryDx=0;entryDy=0;" edge="1" parent="1" source="JMt6g2PzTP9PemR2RMLR-30" target="JMt6g2PzTP9PemR2RMLR-11">
          <mxGeometry width="50" height="50" relative="1" as="geometry">
            <mxPoint x="580" y="402" as="sourcePoint" />
            <mxPoint x="410" y="370" as="targetPoint" />
          </mxGeometry>
        </mxCell>
        <mxCell id="JMt6g2PzTP9PemR2RMLR-18" value="" style="endArrow=none;html=1;rounded=0;exitX=0;exitY=0.3333333333333333;exitDx=0;exitDy=0;exitPerimeter=0;entryX=1;entryY=0.5;entryDx=0;entryDy=0;" edge="1" parent="1" source="C6NTHhXEkg698x2v7Pb0-1" target="JMt6g2PzTP9PemR2RMLR-5">
          <mxGeometry width="50" height="50" relative="1" as="geometry">
            <mxPoint x="660" y="162" as="sourcePoint" />
            <mxPoint x="490" y="130" as="targetPoint" />
          </mxGeometry>
        </mxCell>
        <mxCell id="JMt6g2PzTP9PemR2RMLR-19" value="" style="endArrow=none;html=1;rounded=0;entryX=1;entryY=0.5;entryDx=0;entryDy=0;" edge="1" parent="1" source="C6NTHhXEkg698x2v7Pb0-3" target="JMt6g2PzTP9PemR2RMLR-6">
          <mxGeometry width="50" height="50" relative="1" as="geometry">
            <mxPoint x="670" y="202" as="sourcePoint" />
            <mxPoint x="500" y="170" as="targetPoint" />
          </mxGeometry>
        </mxCell>
        <mxCell id="JMt6g2PzTP9PemR2RMLR-20" value="" style="endArrow=none;html=1;rounded=0;exitX=-0.021;exitY=0.349;exitDx=0;exitDy=0;exitPerimeter=0;entryX=1;entryY=0.5;entryDx=0;entryDy=0;" edge="1" parent="1" source="C6NTHhXEkg698x2v7Pb0-5" target="JMt6g2PzTP9PemR2RMLR-7">
          <mxGeometry width="50" height="50" relative="1" as="geometry">
            <mxPoint x="670" y="242" as="sourcePoint" />
            <mxPoint x="500" y="210" as="targetPoint" />
          </mxGeometry>
        </mxCell>
        <mxCell id="JMt6g2PzTP9PemR2RMLR-21" value="" style="endArrow=none;html=1;rounded=0;entryX=1;entryY=0.5;entryDx=0;entryDy=0;" edge="1" parent="1" source="C6NTHhXEkg698x2v7Pb0-7" target="JMt6g2PzTP9PemR2RMLR-8">
          <mxGeometry width="50" height="50" relative="1" as="geometry">
            <mxPoint x="670" y="282" as="sourcePoint" />
            <mxPoint x="500" y="250" as="targetPoint" />
          </mxGeometry>
        </mxCell>
        <mxCell id="JMt6g2PzTP9PemR2RMLR-22" value="" style="endArrow=none;html=1;rounded=0;entryX=1;entryY=0.5;entryDx=0;entryDy=0;" edge="1" parent="1" source="C6NTHhXEkg698x2v7Pb0-9" target="JMt6g2PzTP9PemR2RMLR-9">
          <mxGeometry width="50" height="50" relative="1" as="geometry">
            <mxPoint x="670" y="322" as="sourcePoint" />
            <mxPoint x="500" y="290" as="targetPoint" />
          </mxGeometry>
        </mxCell>
        <mxCell id="JMt6g2PzTP9PemR2RMLR-28" value="" style="endArrow=none;html=1;rounded=0;exitX=0.5;exitY=0;exitDx=0;exitDy=0;entryX=0.5;entryY=1;entryDx=0;entryDy=0;" edge="1" parent="1" source="JMt6g2PzTP9PemR2RMLR-31" target="JMt6g2PzTP9PemR2RMLR-12">
          <mxGeometry width="50" height="50" relative="1" as="geometry">
            <mxPoint x="610" y="402" as="sourcePoint" />
            <mxPoint x="440" y="370" as="targetPoint" />
          </mxGeometry>
        </mxCell>
        <mxCell id="JMt6g2PzTP9PemR2RMLR-29" value="&lt;font style=&quot;vertical-align: inherit;&quot; dir=&quot;auto&quot;&gt;&lt;font style=&quot;vertical-align: inherit;&quot; dir=&quot;auto&quot;&gt;proyecto&lt;/font&gt;&lt;/font&gt;" style="text;html=1;align=center;verticalAlign=middle;resizable=0;points=[];autosize=1;strokeColor=none;fillColor=none;" vertex="1" parent="1">
          <mxGeometry x="405" y="-30" width="70" height="30" as="geometry" />
        </mxCell>
        <mxCell id="JMt6g2PzTP9PemR2RMLR-32" value="" style="endArrow=none;html=1;rounded=0;exitX=0.5;exitY=0;exitDx=0;exitDy=0;entryX=0.5;entryY=1;entryDx=0;entryDy=0;" edge="1" parent="1" source="JMt6g2PzTP9PemR2RMLR-10" target="JMt6g2PzTP9PemR2RMLR-31">
          <mxGeometry width="50" height="50" relative="1" as="geometry">
            <mxPoint x="195" y="335" as="sourcePoint" />
            <mxPoint x="185" y="170" as="targetPoint" />
          </mxGeometry>
        </mxCell>
        <mxCell id="JMt6g2PzTP9PemR2RMLR-31" value="&lt;font style=&quot;vertical-align: inherit;&quot; dir=&quot;auto&quot;&gt;&lt;font style=&quot;vertical-align: inherit;&quot; dir=&quot;auto&quot;&gt;extends&lt;/font&gt;&lt;/font&gt;" style="text;html=1;align=center;verticalAlign=middle;resizable=0;points=[];autosize=1;strokeColor=none;fillColor=none;" vertex="1" parent="1">
          <mxGeometry x="170" y="230" width="70" height="30" as="geometry" />
        </mxCell>
        <mxCell id="C6NTHhXEkg698x2v7Pb0-2" value="" style="endArrow=none;html=1;rounded=0;exitX=0;exitY=0.3333333333333333;exitDx=0;exitDy=0;exitPerimeter=0;entryX=1;entryY=0.5;entryDx=0;entryDy=0;" edge="1" parent="1" source="JMt6g2PzTP9PemR2RMLR-3" target="C6NTHhXEkg698x2v7Pb0-1">
          <mxGeometry width="50" height="50" relative="1" as="geometry">
            <mxPoint x="880" y="270" as="sourcePoint" />
            <mxPoint x="650" y="85" as="targetPoint" />
          </mxGeometry>
        </mxCell>
        <mxCell id="C6NTHhXEkg698x2v7Pb0-1" value="&lt;font style=&quot;vertical-align: inherit;&quot; dir=&quot;auto&quot;&gt;&lt;font style=&quot;vertical-align: inherit;&quot; dir=&quot;auto&quot;&gt;include&lt;/font&gt;&lt;/font&gt;" style="text;html=1;align=center;verticalAlign=middle;resizable=0;points=[];autosize=1;strokeColor=none;fillColor=none;" vertex="1" parent="1">
          <mxGeometry x="720" y="120" width="60" height="30" as="geometry" />
        </mxCell>
        <mxCell id="C6NTHhXEkg698x2v7Pb0-4" value="" style="endArrow=none;html=1;rounded=0;entryX=1;entryY=0.5;entryDx=0;entryDy=0;" edge="1" parent="1" source="JMt6g2PzTP9PemR2RMLR-3" target="C6NTHhXEkg698x2v7Pb0-3">
          <mxGeometry width="50" height="50" relative="1" as="geometry">
            <mxPoint x="880" y="273" as="sourcePoint" />
            <mxPoint x="650" y="160" as="targetPoint" />
          </mxGeometry>
        </mxCell>
        <mxCell id="C6NTHhXEkg698x2v7Pb0-3" value="&lt;font style=&quot;vertical-align: inherit;&quot; dir=&quot;auto&quot;&gt;&lt;font style=&quot;vertical-align: inherit;&quot; dir=&quot;auto&quot;&gt;include&lt;/font&gt;&lt;/font&gt;" style="text;html=1;align=center;verticalAlign=middle;resizable=0;points=[];autosize=1;strokeColor=none;fillColor=none;" vertex="1" parent="1">
          <mxGeometry x="720" y="190" width="60" height="30" as="geometry" />
        </mxCell>
        <mxCell id="C6NTHhXEkg698x2v7Pb0-6" value="" style="endArrow=none;html=1;rounded=0;exitX=0.5;exitY=0.5;exitDx=0;exitDy=0;exitPerimeter=0;entryX=1;entryY=0.5;entryDx=0;entryDy=0;" edge="1" parent="1" source="JMt6g2PzTP9PemR2RMLR-3" target="C6NTHhXEkg698x2v7Pb0-5">
          <mxGeometry width="50" height="50" relative="1" as="geometry">
            <mxPoint x="895" y="280" as="sourcePoint" />
            <mxPoint x="650" y="225" as="targetPoint" />
          </mxGeometry>
        </mxCell>
        <mxCell id="C6NTHhXEkg698x2v7Pb0-5" value="&lt;font style=&quot;vertical-align: inherit;&quot; dir=&quot;auto&quot;&gt;&lt;font style=&quot;vertical-align: inherit;&quot; dir=&quot;auto&quot;&gt;include&lt;/font&gt;&lt;/font&gt;" style="text;html=1;align=center;verticalAlign=middle;resizable=0;points=[];autosize=1;strokeColor=none;fillColor=none;" vertex="1" parent="1">
          <mxGeometry x="720" y="230" width="60" height="30" as="geometry" />
        </mxCell>
        <mxCell id="C6NTHhXEkg698x2v7Pb0-8" value="" style="endArrow=none;html=1;rounded=0;entryX=1;entryY=0.5;entryDx=0;entryDy=0;" edge="1" parent="1" source="JMt6g2PzTP9PemR2RMLR-3" target="C6NTHhXEkg698x2v7Pb0-7">
          <mxGeometry width="50" height="50" relative="1" as="geometry">
            <mxPoint x="880" y="282" as="sourcePoint" />
            <mxPoint x="650" y="305" as="targetPoint" />
          </mxGeometry>
        </mxCell>
        <mxCell id="C6NTHhXEkg698x2v7Pb0-7" value="&lt;font style=&quot;vertical-align: inherit;&quot; dir=&quot;auto&quot;&gt;&lt;font style=&quot;vertical-align: inherit;&quot; dir=&quot;auto&quot;&gt;include&lt;/font&gt;&lt;/font&gt;" style="text;html=1;align=center;verticalAlign=middle;resizable=0;points=[];autosize=1;strokeColor=none;fillColor=none;" vertex="1" parent="1">
          <mxGeometry x="710" y="290" width="60" height="30" as="geometry" />
        </mxCell>
        <mxCell id="C6NTHhXEkg698x2v7Pb0-10" value="" style="endArrow=none;html=1;rounded=0;entryX=1;entryY=0.5;entryDx=0;entryDy=0;" edge="1" parent="1" source="JMt6g2PzTP9PemR2RMLR-3" target="C6NTHhXEkg698x2v7Pb0-9">
          <mxGeometry width="50" height="50" relative="1" as="geometry">
            <mxPoint x="880" y="286" as="sourcePoint" />
            <mxPoint x="650" y="385" as="targetPoint" />
          </mxGeometry>
        </mxCell>
        <mxCell id="C6NTHhXEkg698x2v7Pb0-9" value="&lt;font style=&quot;vertical-align: inherit;&quot; dir=&quot;auto&quot;&gt;&lt;font style=&quot;vertical-align: inherit;&quot; dir=&quot;auto&quot;&gt;include&lt;/font&gt;&lt;/font&gt;" style="text;html=1;align=center;verticalAlign=middle;resizable=0;points=[];autosize=1;strokeColor=none;fillColor=none;" vertex="1" parent="1">
          <mxGeometry x="710" y="350" width="60" height="30" as="geometry" />
        </mxCell>
        <mxCell id="C6NTHhXEkg698x2v7Pb0-11" value="" style="endArrow=none;html=1;rounded=0;exitX=0;exitY=0.5;exitDx=0;exitDy=0;entryX=1;entryY=0.5;entryDx=0;entryDy=0;" edge="1" parent="1" source="JMt6g2PzTP9PemR2RMLR-5" target="JMt6g2PzTP9PemR2RMLR-30">
          <mxGeometry width="50" height="50" relative="1" as="geometry">
            <mxPoint x="600" y="85" as="sourcePoint" />
            <mxPoint x="210" y="85" as="targetPoint" />
          </mxGeometry>
        </mxCell>
        <mxCell id="JMt6g2PzTP9PemR2RMLR-30" value="&lt;font style=&quot;vertical-align: inherit;&quot; dir=&quot;auto&quot;&gt;&lt;font style=&quot;vertical-align: inherit;&quot; dir=&quot;auto&quot;&gt;include&lt;/font&gt;&lt;/font&gt;" style="text;html=1;align=center;verticalAlign=middle;resizable=0;points=[];autosize=1;strokeColor=none;fillColor=none;" vertex="1" parent="1">
          <mxGeometry x="354" y="70" width="60" height="30" as="geometry" />
        </mxCell>
      </root>
    </mxGraphModel>
  </diagram>
  <diagram id="zXXc227d9lFMKUCJnyEI" name="PÃ¡gina-2">
    <mxGraphModel grid="1" page="1" gridSize="10" guides="1" tooltips="1" connect="1" arrows="1" fold="1" pageScale="1" pageWidth="827" pageHeight="1169" math="0" shadow="0">
      <root>
        <mxCell id="0" />
        <mxCell id="1" parent="0" />
        <mxCell id="X9EPXAHqiq2JF3I1gY1_-1" value="" style="rounded=0;whiteSpace=wrap;html=1;" vertex="1" parent="1">
          <mxGeometry x="411" y="300" width="720" height="440" as="geometry" />
        </mxCell>
        <mxCell id="X9EPXAHqiq2JF3I1gY1_-2" value="&lt;font style=&quot;vertical-align: inherit;&quot; dir=&quot;auto&quot;&gt;&lt;font style=&quot;vertical-align: inherit;&quot; dir=&quot;auto&quot;&gt;administrador&lt;/font&gt;&lt;/font&gt;" style="shape=umlActor;verticalLabelPosition=bottom;verticalAlign=top;html=1;outlineConnect=0;" vertex="1" parent="1">
          <mxGeometry x="301" y="330" width="30" height="60" as="geometry" />
        </mxCell>
        <mxCell id="X9EPXAHqiq2JF3I1gY1_-3" value="&lt;font style=&quot;vertical-align: inherit;&quot; dir=&quot;auto&quot;&gt;&lt;font style=&quot;vertical-align: inherit;&quot; dir=&quot;auto&quot;&gt;cliente&lt;/font&gt;&lt;/font&gt;" style="shape=umlActor;verticalLabelPosition=bottom;verticalAlign=top;html=1;outlineConnect=0;" vertex="1" parent="1">
          <mxGeometry x="1211" y="510" width="30" height="60" as="geometry" />
        </mxCell>
        <mxCell id="X9EPXAHqiq2JF3I1gY1_-5" value="&lt;font style=&quot;vertical-align: inherit;&quot; dir=&quot;auto&quot;&gt;&lt;font style=&quot;vertical-align: inherit;&quot; dir=&quot;auto&quot;&gt;&lt;font style=&quot;vertical-align: inherit;&quot; dir=&quot;auto&quot;&gt;&lt;font style=&quot;vertical-align: inherit;&quot; dir=&quot;auto&quot;&gt;reserva&lt;/font&gt;&lt;/font&gt;&lt;/font&gt;&lt;/font&gt;" style="ellipse;whiteSpace=wrap;html=1;" vertex="1" parent="1">
          <mxGeometry x="900" y="430" width="50" height="30" as="geometry" />
        </mxCell>
        <mxCell id="X9EPXAHqiq2JF3I1gY1_-39" style="edgeStyle=orthogonalEdgeStyle;rounded=0;orthogonalLoop=1;jettySize=auto;html=1;entryX=0.5;entryY=0;entryDx=0;entryDy=0;" edge="1" parent="1" source="X9EPXAHqiq2JF3I1gY1_-40" target="X9EPXAHqiq2JF3I1gY1_-5">
          <mxGeometry relative="1" as="geometry" />
        </mxCell>
        <mxCell id="X9EPXAHqiq2JF3I1gY1_-6" value="&lt;font style=&quot;vertical-align: inherit;&quot; dir=&quot;auto&quot;&gt;&lt;font style=&quot;vertical-align: inherit;&quot; dir=&quot;auto&quot;&gt;efectuar pago&lt;/font&gt;&lt;/font&gt;" style="ellipse;whiteSpace=wrap;html=1;" vertex="1" parent="1">
          <mxGeometry x="910" y="310" width="60" height="40" as="geometry" />
        </mxCell>
        <mxCell id="X9EPXAHqiq2JF3I1gY1_-42" style="edgeStyle=orthogonalEdgeStyle;rounded=0;orthogonalLoop=1;jettySize=auto;html=1;entryX=0.5;entryY=1;entryDx=0;entryDy=0;" edge="1" parent="1" source="X9EPXAHqiq2JF3I1gY1_-43" target="X9EPXAHqiq2JF3I1gY1_-5">
          <mxGeometry relative="1" as="geometry" />
        </mxCell>
        <mxCell id="X9EPXAHqiq2JF3I1gY1_-7" value="&lt;font style=&quot;vertical-align: inherit;&quot; dir=&quot;auto&quot;&gt;&lt;font style=&quot;vertical-align: inherit;&quot; dir=&quot;auto&quot;&gt;cancelar reserva&lt;/font&gt;&lt;/font&gt;" style="ellipse;whiteSpace=wrap;html=1;" vertex="1" parent="1">
          <mxGeometry x="890" y="550" width="50" height="30" as="geometry" />
        </mxCell>
        <mxCell id="X9EPXAHqiq2JF3I1gY1_-8" value="&lt;font style=&quot;vertical-align: inherit;&quot; dir=&quot;auto&quot;&gt;&lt;font style=&quot;vertical-align: inherit;&quot; dir=&quot;auto&quot;&gt;avances&lt;/font&gt;&lt;/font&gt;" style="ellipse;whiteSpace=wrap;html=1;" vertex="1" parent="1">
          <mxGeometry x="900" y="620" width="50" height="30" as="geometry" />
        </mxCell>
        <mxCell id="X9EPXAHqiq2JF3I1gY1_-9" value="registrar" style="ellipse;whiteSpace=wrap;html=1;" vertex="1" parent="1">
          <mxGeometry x="521" y="510" width="89" height="50" as="geometry" />
        </mxCell>
        <mxCell id="X9EPXAHqiq2JF3I1gY1_-11" value="&lt;font style=&quot;vertical-align: inherit;&quot; dir=&quot;auto&quot;&gt;&lt;font style=&quot;vertical-align: inherit;&quot; dir=&quot;auto&quot;&gt;disponibilidad&lt;/font&gt;&lt;/font&gt;" style="ellipse;whiteSpace=wrap;html=1;" vertex="1" parent="1">
          <mxGeometry x="491" y="330" width="79" height="40" as="geometry" />
        </mxCell>
        <mxCell id="X9EPXAHqiq2JF3I1gY1_-12" value="&lt;font style=&quot;vertical-align: inherit;&quot; dir=&quot;auto&quot;&gt;&lt;font style=&quot;vertical-align: inherit;&quot; dir=&quot;auto&quot;&gt;invenario&lt;/font&gt;&lt;/font&gt;" style="ellipse;whiteSpace=wrap;html=1;" vertex="1" parent="1">
          <mxGeometry x="501" y="400" width="70" height="40" as="geometry" />
        </mxCell>
        <mxCell id="X9EPXAHqiq2JF3I1gY1_-13" value="" style="endArrow=none;html=1;rounded=0;exitX=0;exitY=0.5;exitDx=0;exitDy=0;" edge="1" parent="1" source="X9EPXAHqiq2JF3I1gY1_-11" target="X9EPXAHqiq2JF3I1gY1_-2">
          <mxGeometry width="50" height="50" relative="1" as="geometry">
            <mxPoint x="771" y="530" as="sourcePoint" />
            <mxPoint x="821" y="480" as="targetPoint" />
          </mxGeometry>
        </mxCell>
        <mxCell id="X9EPXAHqiq2JF3I1gY1_-14" value="" style="endArrow=none;html=1;rounded=0;exitX=0;exitY=0.5;exitDx=0;exitDy=0;" edge="1" parent="1" source="X9EPXAHqiq2JF3I1gY1_-12" target="X9EPXAHqiq2JF3I1gY1_-2">
          <mxGeometry width="50" height="50" relative="1" as="geometry">
            <mxPoint x="501" y="412" as="sourcePoint" />
            <mxPoint x="331" y="380" as="targetPoint" />
          </mxGeometry>
        </mxCell>
        <mxCell id="X9EPXAHqiq2JF3I1gY1_-16" value="" style="endArrow=none;html=1;rounded=0;exitX=0;exitY=0.5;exitDx=0;exitDy=0;entryX=1;entryY=0.5;entryDx=0;entryDy=0;" edge="1" parent="1" source="X9EPXAHqiq2JF3I1gY1_-37" target="X9EPXAHqiq2JF3I1gY1_-11">
          <mxGeometry width="50" height="50" relative="1" as="geometry">
            <mxPoint x="911" y="662" as="sourcePoint" />
            <mxPoint x="741" y="630" as="targetPoint" />
          </mxGeometry>
        </mxCell>
        <mxCell id="X9EPXAHqiq2JF3I1gY1_-17" value="" style="endArrow=none;html=1;rounded=0;exitX=0;exitY=0.3333333333333333;exitDx=0;exitDy=0;exitPerimeter=0;entryX=1;entryY=0.5;entryDx=0;entryDy=0;" edge="1" parent="1" source="X9EPXAHqiq2JF3I1gY1_-27" target="X9EPXAHqiq2JF3I1gY1_-5">
          <mxGeometry width="50" height="50" relative="1" as="geometry">
            <mxPoint x="991" y="422" as="sourcePoint" />
            <mxPoint x="821" y="390" as="targetPoint" />
          </mxGeometry>
        </mxCell>
        <mxCell id="X9EPXAHqiq2JF3I1gY1_-18" value="" style="endArrow=none;html=1;rounded=0;entryX=1;entryY=0.5;entryDx=0;entryDy=0;" edge="1" parent="1" source="X9EPXAHqiq2JF3I1gY1_-29" target="X9EPXAHqiq2JF3I1gY1_-6">
          <mxGeometry width="50" height="50" relative="1" as="geometry">
            <mxPoint x="1001" y="462" as="sourcePoint" />
            <mxPoint x="831" y="430" as="targetPoint" />
          </mxGeometry>
        </mxCell>
        <mxCell id="X9EPXAHqiq2JF3I1gY1_-19" value="" style="endArrow=none;html=1;rounded=0;exitX=-0.021;exitY=0.349;exitDx=0;exitDy=0;exitPerimeter=0;entryX=1;entryY=0.5;entryDx=0;entryDy=0;" edge="1" parent="1" source="X9EPXAHqiq2JF3I1gY1_-31" target="X9EPXAHqiq2JF3I1gY1_-7">
          <mxGeometry width="50" height="50" relative="1" as="geometry">
            <mxPoint x="1001" y="502" as="sourcePoint" />
            <mxPoint x="831" y="470" as="targetPoint" />
          </mxGeometry>
        </mxCell>
        <mxCell id="X9EPXAHqiq2JF3I1gY1_-20" value="" style="endArrow=none;html=1;rounded=0;entryX=1;entryY=0.5;entryDx=0;entryDy=0;" edge="1" parent="1" source="X9EPXAHqiq2JF3I1gY1_-33" target="X9EPXAHqiq2JF3I1gY1_-8">
          <mxGeometry width="50" height="50" relative="1" as="geometry">
            <mxPoint x="1001" y="542" as="sourcePoint" />
            <mxPoint x="831" y="510" as="targetPoint" />
          </mxGeometry>
        </mxCell>
        <mxCell id="X9EPXAHqiq2JF3I1gY1_-21" value="" style="endArrow=none;html=1;rounded=0;entryX=0;entryY=0.5;entryDx=0;entryDy=0;" edge="1" parent="1" source="X9EPXAHqiq2JF3I1gY1_-35" target="X9EPXAHqiq2JF3I1gY1_-9">
          <mxGeometry width="50" height="50" relative="1" as="geometry">
            <mxPoint x="1001" y="582" as="sourcePoint" />
            <mxPoint x="831" y="550" as="targetPoint" />
          </mxGeometry>
        </mxCell>
        <mxCell id="X9EPXAHqiq2JF3I1gY1_-23" value="&lt;font style=&quot;vertical-align: inherit;&quot; dir=&quot;auto&quot;&gt;&lt;font style=&quot;vertical-align: inherit;&quot; dir=&quot;auto&quot;&gt;9&lt;/font&gt;&lt;/font&gt;" style="text;html=1;align=center;verticalAlign=middle;resizable=0;points=[];autosize=1;strokeColor=none;fillColor=none;" vertex="1" parent="1">
          <mxGeometry x="756" y="230" width="30" height="30" as="geometry" />
        </mxCell>
        <mxCell id="X9EPXAHqiq2JF3I1gY1_-26" value="" style="endArrow=none;html=1;rounded=0;exitX=0;exitY=0.3333333333333333;exitDx=0;exitDy=0;exitPerimeter=0;entryX=1;entryY=0.5;entryDx=0;entryDy=0;" edge="1" parent="1" source="X9EPXAHqiq2JF3I1gY1_-3" target="X9EPXAHqiq2JF3I1gY1_-27">
          <mxGeometry width="50" height="50" relative="1" as="geometry">
            <mxPoint x="1211" y="530" as="sourcePoint" />
            <mxPoint x="981" y="345" as="targetPoint" />
          </mxGeometry>
        </mxCell>
        <mxCell id="X9EPXAHqiq2JF3I1gY1_-27" value="&lt;font style=&quot;vertical-align: inherit;&quot; dir=&quot;auto&quot;&gt;&lt;font style=&quot;vertical-align: inherit;&quot; dir=&quot;auto&quot;&gt;include&lt;/font&gt;&lt;/font&gt;" style="text;html=1;align=center;verticalAlign=middle;resizable=0;points=[];autosize=1;strokeColor=none;fillColor=none;" vertex="1" parent="1">
          <mxGeometry x="1040" y="430" width="60" height="30" as="geometry" />
        </mxCell>
        <mxCell id="X9EPXAHqiq2JF3I1gY1_-28" value="" style="endArrow=none;html=1;rounded=0;entryX=1;entryY=0.5;entryDx=0;entryDy=0;" edge="1" parent="1" source="X9EPXAHqiq2JF3I1gY1_-3" target="X9EPXAHqiq2JF3I1gY1_-29">
          <mxGeometry width="50" height="50" relative="1" as="geometry">
            <mxPoint x="1211" y="533" as="sourcePoint" />
            <mxPoint x="981" y="420" as="targetPoint" />
          </mxGeometry>
        </mxCell>
        <mxCell id="X9EPXAHqiq2JF3I1gY1_-29" value="&lt;font style=&quot;vertical-align: inherit;&quot; dir=&quot;auto&quot;&gt;&lt;font style=&quot;vertical-align: inherit;&quot; dir=&quot;auto&quot;&gt;include&lt;/font&gt;&lt;/font&gt;" style="text;html=1;align=center;verticalAlign=middle;resizable=0;points=[];autosize=1;strokeColor=none;fillColor=none;" vertex="1" parent="1">
          <mxGeometry x="1030" y="320" width="60" height="30" as="geometry" />
        </mxCell>
        <mxCell id="X9EPXAHqiq2JF3I1gY1_-30" value="" style="endArrow=none;html=1;rounded=0;exitX=0.5;exitY=0.5;exitDx=0;exitDy=0;exitPerimeter=0;entryX=1;entryY=0.5;entryDx=0;entryDy=0;" edge="1" parent="1" source="X9EPXAHqiq2JF3I1gY1_-3" target="X9EPXAHqiq2JF3I1gY1_-31">
          <mxGeometry width="50" height="50" relative="1" as="geometry">
            <mxPoint x="1226" y="540" as="sourcePoint" />
            <mxPoint x="981" y="485" as="targetPoint" />
          </mxGeometry>
        </mxCell>
        <mxCell id="X9EPXAHqiq2JF3I1gY1_-31" value="&lt;font style=&quot;vertical-align: inherit;&quot; dir=&quot;auto&quot;&gt;&lt;font style=&quot;vertical-align: inherit;&quot; dir=&quot;auto&quot;&gt;include&lt;/font&gt;&lt;/font&gt;" style="text;html=1;align=center;verticalAlign=middle;resizable=0;points=[];autosize=1;strokeColor=none;fillColor=none;" vertex="1" parent="1">
          <mxGeometry x="1040" y="540" width="60" height="30" as="geometry" />
        </mxCell>
        <mxCell id="X9EPXAHqiq2JF3I1gY1_-32" value="" style="endArrow=none;html=1;rounded=0;entryX=1;entryY=0.5;entryDx=0;entryDy=0;" edge="1" parent="1" source="X9EPXAHqiq2JF3I1gY1_-3" target="X9EPXAHqiq2JF3I1gY1_-33">
          <mxGeometry width="50" height="50" relative="1" as="geometry">
            <mxPoint x="1211" y="542" as="sourcePoint" />
            <mxPoint x="981" y="565" as="targetPoint" />
          </mxGeometry>
        </mxCell>
        <mxCell id="X9EPXAHqiq2JF3I1gY1_-33" value="&lt;font style=&quot;vertical-align: inherit;&quot; dir=&quot;auto&quot;&gt;&lt;font style=&quot;vertical-align: inherit;&quot; dir=&quot;auto&quot;&gt;include&lt;/font&gt;&lt;/font&gt;" style="text;html=1;align=center;verticalAlign=middle;resizable=0;points=[];autosize=1;strokeColor=none;fillColor=none;" vertex="1" parent="1">
          <mxGeometry x="1020" y="620" width="60" height="30" as="geometry" />
        </mxCell>
        <mxCell id="X9EPXAHqiq2JF3I1gY1_-34" value="" style="endArrow=none;html=1;rounded=0;entryX=1;entryY=0.5;entryDx=0;entryDy=0;" edge="1" parent="1" source="X9EPXAHqiq2JF3I1gY1_-2" target="X9EPXAHqiq2JF3I1gY1_-35">
          <mxGeometry width="50" height="50" relative="1" as="geometry">
            <mxPoint x="1211" y="546" as="sourcePoint" />
            <mxPoint x="981" y="645" as="targetPoint" />
          </mxGeometry>
        </mxCell>
        <mxCell id="X9EPXAHqiq2JF3I1gY1_-35" value="&lt;font style=&quot;vertical-align: inherit;&quot; dir=&quot;auto&quot;&gt;&lt;font style=&quot;vertical-align: inherit;&quot; dir=&quot;auto&quot;&gt;include&lt;/font&gt;&lt;/font&gt;" style="text;html=1;align=center;verticalAlign=middle;resizable=0;points=[];autosize=1;strokeColor=none;fillColor=none;" vertex="1" parent="1">
          <mxGeometry x="400" y="460" width="60" height="30" as="geometry" />
        </mxCell>
        <mxCell id="X9EPXAHqiq2JF3I1gY1_-36" value="" style="endArrow=none;html=1;rounded=0;exitX=0;exitY=0.5;exitDx=0;exitDy=0;entryX=1;entryY=0.5;entryDx=0;entryDy=0;" edge="1" parent="1" source="X9EPXAHqiq2JF3I1gY1_-5" target="X9EPXAHqiq2JF3I1gY1_-37">
          <mxGeometry width="50" height="50" relative="1" as="geometry">
            <mxPoint x="931" y="345" as="sourcePoint" />
            <mxPoint x="541" y="345" as="targetPoint" />
          </mxGeometry>
        </mxCell>
        <mxCell id="X9EPXAHqiq2JF3I1gY1_-37" value="&lt;font style=&quot;vertical-align: inherit;&quot; dir=&quot;auto&quot;&gt;&lt;font style=&quot;vertical-align: inherit;&quot; dir=&quot;auto&quot;&gt;include&lt;/font&gt;&lt;/font&gt;" style="text;html=1;align=center;verticalAlign=middle;resizable=0;points=[];autosize=1;strokeColor=none;fillColor=none;" vertex="1" parent="1">
          <mxGeometry x="685" y="330" width="60" height="30" as="geometry" />
        </mxCell>
        <mxCell id="X9EPXAHqiq2JF3I1gY1_-41" value="" style="edgeStyle=orthogonalEdgeStyle;rounded=0;orthogonalLoop=1;jettySize=auto;html=1;entryX=0.5;entryY=0;entryDx=0;entryDy=0;" edge="1" parent="1" source="X9EPXAHqiq2JF3I1gY1_-6" target="X9EPXAHqiq2JF3I1gY1_-40">
          <mxGeometry relative="1" as="geometry">
            <mxPoint x="940" y="350" as="sourcePoint" />
            <mxPoint x="925" y="430" as="targetPoint" />
          </mxGeometry>
        </mxCell>
        <mxCell id="X9EPXAHqiq2JF3I1gY1_-40" value="&lt;font style=&quot;vertical-align: inherit;&quot; dir=&quot;auto&quot;&gt;&lt;font style=&quot;vertical-align: inherit;&quot; dir=&quot;auto&quot;&gt;include&lt;/font&gt;&lt;/font&gt;" style="text;html=1;align=center;verticalAlign=middle;resizable=0;points=[];autosize=1;strokeColor=none;fillColor=none;" vertex="1" parent="1">
          <mxGeometry x="910" y="370" width="60" height="30" as="geometry" />
        </mxCell>
        <mxCell id="X9EPXAHqiq2JF3I1gY1_-44" value="" style="edgeStyle=orthogonalEdgeStyle;rounded=0;orthogonalLoop=1;jettySize=auto;html=1;entryX=0.5;entryY=1;entryDx=0;entryDy=0;" edge="1" parent="1" source="X9EPXAHqiq2JF3I1gY1_-7" target="X9EPXAHqiq2JF3I1gY1_-43">
          <mxGeometry relative="1" as="geometry">
            <mxPoint x="915" y="530" as="sourcePoint" />
            <mxPoint x="925" y="460" as="targetPoint" />
          </mxGeometry>
        </mxCell>
        <mxCell id="X9EPXAHqiq2JF3I1gY1_-43" value="extends" style="text;html=1;align=center;verticalAlign=middle;resizable=0;points=[];autosize=1;strokeColor=none;fillColor=none;" vertex="1" parent="1">
          <mxGeometry x="890" y="490" width="70" height="30" as="geometry" />
        </mxCell>
      </root>
    </mxGraphModel>
  </diagram>
</mxfile>
